<svg xmlns="http://www.w3.org/2000/svg" xmlns:xlink="http://www.w3.org/1999/xlink" viewBox="0 0 513.92 352.37"><defs><style>.cls-1,.cls-10,.cls-11,.cls-12,.cls-14,.cls-15,.cls-7,.cls-8,.cls-9{fill:none;}.cls-2{fill:#f6f6f6;}.cls-3{clip-path:url(#clip-path);}.cls-4{fill:#486cb3;}.cls-5{fill:#fff;}.cls-6{fill:#373535;}.cls-10,.cls-11,.cls-12,.cls-7,.cls-9{stroke:#676767;}.cls-11,.cls-7,.cls-8,.cls-9{stroke-linecap:round;}.cls-10,.cls-12,.cls-14,.cls-15,.cls-7,.cls-8,.cls-9{stroke-miterlimit:10;}.cls-7{stroke-width:2.5px;stroke-dasharray:0.03 5.62;}.cls-14,.cls-15,.cls-8{stroke:#009648;}.cls-10,.cls-11,.cls-14,.cls-8,.cls-9{stroke-width:1px;}.cls-11{stroke-linejoin:round;}.cls-12{stroke-width:1.5px;}.cls-13{fill:#e7e6e6;}.cls-15{stroke-width:0.5px;}.cls-16{fill:#343434;}.cls-17{fill:#979a9c;}.cls-18{fill:#009648;}</style><clipPath id="clip-path"><rect class="cls-1" x="9.23" y="69.37" width="495.45" height="213.63"/></clipPath></defs><title>NGINX Plus</title><g id="Background"><rect class="cls-2" x="0.52" y="1.29" width="512.88" height="351.33" rx="8.61"/></g><g id="Layer_1" data-name="Layer 1"><g class="cls-3"><path class="cls-4" d="M209.56,99.26l-2.08-9a1.6,1.6,0,0,0-.86-1.07l-8.4-4a1.57,1.57,0,0,0-.68-.15,2,2,0,0,0-.69.13l-8.4,4a1.58,1.58,0,0,0-.86,1.07l-2.08,9a1.71,1.71,0,0,0,.32,1.37l5.81,7.21a1.55,1.55,0,0,0,1.24.6h9.31a1.54,1.54,0,0,0,1.24-.6l5.81-7.21a1.58,1.58,0,0,0,.32-1.37"/><path class="cls-5" d="M206,98.55h0s0,0,0,0h-.1a2,2,0,0,0-.32,0h-.18a5.27,5.27,0,0,1-.9-.15.34.34,0,0,1-.18-.18s0,0,0,0L204,98a6.38,6.38,0,0,0-.12-2.34,6.69,6.69,0,0,0-.93-2.18l.17-.15v0a.43.43,0,0,1,.08-.25,4.86,4.86,0,0,1,.75-.51c.05,0,.1,0,.15-.09a1.33,1.33,0,0,0,.28-.16.44.44,0,0,0,.08-.07s0,0,0,0a.55.55,0,0,0,.11-.75.48.48,0,0,0-.38-.18.61.61,0,0,0-.36.13l0,0s-.05,0-.08.06l-.22.23a.41.41,0,0,1-.11.12,4,4,0,0,1-.67.6.3.3,0,0,1-.14,0,.16.16,0,0,1-.1,0h0l-.2.13a6.76,6.76,0,0,0-.68-.63,6.53,6.53,0,0,0-3.46-1.37l0-.22,0,0a.37.37,0,0,1-.14-.22,7.33,7.33,0,0,1,.05-.89v0a.53.53,0,0,1,0-.17c0-.1,0-.2.05-.31v-.15a.54.54,0,0,0-.52-.55.53.53,0,0,0-.36.17.52.52,0,0,0-.15.38v.13a.83.83,0,0,0,0,.32,1.1,1.1,0,0,0,0,.16v0a4.78,4.78,0,0,1,.05.9.36.36,0,0,1-.13.21l0,0v.22c-.3,0-.6.07-.9.13a6.43,6.43,0,0,0-3.28,1.86l-.17-.12h0l-.1,0a.3.3,0,0,1-.15-.05,4.52,4.52,0,0,1-.67-.61.41.41,0,0,0-.11-.12,2.34,2.34,0,0,0-.22-.23s-.05,0-.08-.07,0,0,0,0a.62.62,0,0,0-.37-.13.45.45,0,0,0-.38.18.55.55,0,0,0,.12.75h0l.08.07a2.09,2.09,0,0,0,.28.17.37.37,0,0,1,.15.08,4.86,4.86,0,0,1,.75.51.32.32,0,0,1,.08.25v0l.17.15a.5.5,0,0,0-.08.14,6.43,6.43,0,0,0-.93,4.38l-.22.06s0,0,0,0a.39.39,0,0,1-.18.18,4.22,4.22,0,0,1-.89.15h-.19a1.76,1.76,0,0,0-.31,0h-.1a.06.06,0,0,0-.05,0,.55.55,0,0,0-.43.62.51.51,0,0,0,.53.38.3.3,0,0,0,.13,0s0,0,0,0h.1l.3-.12.15-.07h0a4.17,4.17,0,0,1,.86-.24h0a.41.41,0,0,1,.22.08s0,0,0,0l.24,0a6.48,6.48,0,0,0,2.17,3.12,6.8,6.8,0,0,0,.71.48l-.1.22s0,0,0,0a.34.34,0,0,1,0,.27,4.75,4.75,0,0,1-.43.78h0l-.1.14-.18.26a.56.56,0,0,0-.05.08.07.07,0,0,1,0,0,.52.52,0,0,0,.22.71.49.49,0,0,0,.2,0,.6.6,0,0,0,.5-.31.1.1,0,0,1,0,0,.56.56,0,0,1,.05-.08,2.63,2.63,0,0,0,.1-.3l.05-.15a4.06,4.06,0,0,1,.35-.83c.07-.1.15-.11.22-.15h0l.12-.22a6.46,6.46,0,0,0,2.32.43,6.29,6.29,0,0,0,1.44-.16,7.78,7.78,0,0,0,.86-.25l.1.18s0,0,0,0a.27.27,0,0,1,.21.15,5.31,5.31,0,0,1,.35.82v0l.05.15a1.76,1.76,0,0,0,.1.3l.05.08a.07.07,0,0,0,0,0,.56.56,0,0,0,.49.31.46.46,0,0,0,.2,0,.44.44,0,0,0,.25-.3.53.53,0,0,0,0-.41s0,0,0,0a.22.22,0,0,0-.05-.08,1.2,1.2,0,0,0-.18-.26l-.1-.14h0a3.62,3.62,0,0,1-.43-.78.47.47,0,0,1,0-.27s0,0,0,0l-.08-.2a6.49,6.49,0,0,0,2.19-2.14,6.73,6.73,0,0,0,.7-1.49l.2,0s0,0,0,0a.49.49,0,0,1,.21-.08h0a3.83,3.83,0,0,1,.86.25h0s.1,0,.15.06a1.34,1.34,0,0,0,.3.12l.09,0h.05a.34.34,0,0,0,.14,0,.57.57,0,0,0,.53-.38.63.63,0,0,0-.48-.55m-7.69-.81-.73.35-.73-.35-.18-.78.5-.63h.81l.5.63ZM202.61,96a5.33,5.33,0,0,1,.11,1.68L200.18,97a.45.45,0,0,1-.31-.53.35.35,0,0,1,.1-.19l2-1.8a5.23,5.23,0,0,1,.64,1.57m-1.43-2.57L199,95a.44.44,0,0,1-.59-.1.37.37,0,0,1-.08-.18l-.15-2.7a5,5,0,0,1,3,1.44m-4.81-1.36.53-.1-.15,2.65a.46.46,0,0,1-.45.44.42.42,0,0,1-.2,0l-2.21-1.58a5.1,5.1,0,0,1,2.48-1.36m-3.27,2.36,2,1.76a.43.43,0,0,1,.05.61.35.35,0,0,1-.2.13l-2.57.75a5.31,5.31,0,0,1,.75-3.25m-.45,4.49,2.64-.45a.46.46,0,0,1,.46.35.49.49,0,0,1,0,.27l-1,2.44a5.23,5.23,0,0,1-2.07-2.61m6.06,3.3a5.13,5.13,0,0,1-1.17.14,5.46,5.46,0,0,1-1.67-.27l1.31-2.37a.43.43,0,0,1,.53-.12.73.73,0,0,1,.2.19l1.28,2.3-.48.13m3.23-2.3a5.31,5.31,0,0,1-1.59,1.61l-1-2.51a.44.44,0,0,1,.24-.51.43.43,0,0,1,.23,0l2.65.45a3.34,3.34,0,0,1-.48,1"/><path class="cls-6" d="M219,97.78l.59-.65.6-.67.54-.64c.17-.19.32-.37.44-.52h2.32c-.46.54-.91,1-1.35,1.53s-.93,1-1.45,1.5a9.43,9.43,0,0,1,.81.84q.42.49.81,1c.27.35.51.7.73,1s.4.67.55,1h-2.25q-.21-.35-.48-.75c-.18-.28-.37-.56-.57-.83s-.41-.54-.63-.8a6.46,6.46,0,0,0-.66-.64v3h-2V92.34l2-.32Z"/><path class="cls-6" d="M230.4,102a11.82,11.82,0,0,1-1.28.26,9.88,9.88,0,0,1-1.66.13,3.88,3.88,0,0,1-1.46-.24,2.12,2.12,0,0,1-.92-.66,2.55,2.55,0,0,1-.49-1,5.73,5.73,0,0,1-.14-1.29V95.3h2v3.61a2.85,2.85,0,0,0,.25,1.36,1,1,0,0,0,.93.42,3.54,3.54,0,0,0,.45,0l.42,0V95.3h2Z"/><path class="cls-6" d="M238.65,98.75a4.45,4.45,0,0,1-.24,1.5,3.31,3.31,0,0,1-.7,1.14,3.15,3.15,0,0,1-1.13.73,4.25,4.25,0,0,1-1.52.25l-.74,0c-.26,0-.51,0-.76-.09s-.49-.07-.72-.12l-.6-.15V92.34l1.95-.32v3.44a3.37,3.37,0,0,1,.68-.22,3.14,3.14,0,0,1,.77-.08,3.06,3.06,0,0,1,1.29.25,2.63,2.63,0,0,1,.95.73,3.6,3.6,0,0,1,.58,1.14,5.18,5.18,0,0,1,.19,1.47m-2,0c0-1.26-.46-1.89-1.39-1.89a2.47,2.47,0,0,0-.6.08,1.65,1.65,0,0,0-.48.2v3.55l.37,0,.49,0a1.41,1.41,0,0,0,1.2-.55,2.43,2.43,0,0,0,.41-1.46"/><path class="cls-6" d="M239.33,98.8a4.16,4.16,0,0,1,.28-1.6,3.62,3.62,0,0,1,.74-1.15,2.94,2.94,0,0,1,1.06-.69,3.23,3.23,0,0,1,1.22-.24A3.07,3.07,0,0,1,245,96a3.74,3.74,0,0,1,.85,2.64c0,.11,0,.24,0,.37s0,.26,0,.37h-4.43a1.27,1.27,0,0,0,.56.95,2.24,2.24,0,0,0,1.34.36,6,6,0,0,0,1-.1,4.73,4.73,0,0,0,.85-.24l.26,1.58a2.33,2.33,0,0,1-.42.16c-.17,0-.37.1-.58.14l-.69.1c-.25,0-.49,0-.73,0a4.35,4.35,0,0,1-1.62-.28,3.19,3.19,0,0,1-1.15-.75,3,3,0,0,1-.66-1.14,4.36,4.36,0,0,1-.22-1.42m4.59-.74a2,2,0,0,0-.09-.49,1.13,1.13,0,0,0-.22-.42,1.26,1.26,0,0,0-.38-.3,1.2,1.2,0,0,0-.57-.12,1.33,1.33,0,0,0-.56.11,1.35,1.35,0,0,0-.4.3,1.37,1.37,0,0,0-.24.43,2.07,2.07,0,0,0-.12.49Z"/><path class="cls-6" d="M252.88,97c-.17,0-.58-.09-.82-.13a8.57,8.57,0,0,0-1.16-.08l-.64,0c-.17,0-.5,0-.59.07v5.27h-1.95V95.67a12.26,12.26,0,0,1,1.24-.35,11.22,11.22,0,0,1,2-.16l.58,0,.65,0,.55.08a4.32,4.32,0,0,1,.48.11Z"/><path class="cls-6" d="M254.66,95.54a9.61,9.61,0,0,1,1.28-.27,11.08,11.08,0,0,1,1.66-.12,3.89,3.89,0,0,1,1.46.23A2.17,2.17,0,0,1,260,96a2.6,2.6,0,0,1,.49,1,5.15,5.15,0,0,1,.14,1.29v3.89h-1.95V98.54a2.55,2.55,0,0,0-.25-1.33,1,1,0,0,0-.93-.4l-.45,0-.42,0v5.32h-2Z"/><path class="cls-6" d="M262,98.8a4.16,4.16,0,0,1,.28-1.6,3.45,3.45,0,0,1,.74-1.15,2.91,2.91,0,0,1,1-.69,3.28,3.28,0,0,1,1.23-.24,3,3,0,0,1,2.32.9,3.7,3.7,0,0,1,.86,2.64c0,.11,0,.24,0,.37s0,.26,0,.37H264a1.28,1.28,0,0,0,.57.95,2.21,2.21,0,0,0,1.33.36,6.24,6.24,0,0,0,1.06-.1,4.73,4.73,0,0,0,.85-.24L268,102a3.13,3.13,0,0,1-.42.16c-.18,0-.37.1-.58.14l-.69.1c-.25,0-.49,0-.74,0a4.43,4.43,0,0,1-1.62-.28,3.06,3.06,0,0,1-1.14-.75,3.1,3.1,0,0,1-.67-1.14A4.64,4.64,0,0,1,262,98.8m4.59-.74a2,2,0,0,0-.09-.49,1.3,1.3,0,0,0-.22-.42,1.17,1.17,0,0,0-.95-.42,1.41,1.41,0,0,0-.57.11,1.45,1.45,0,0,0-.39.3,1.2,1.2,0,0,0-.24.43,2.72,2.72,0,0,0-.13.49Z"/><path class="cls-6" d="M271,93.58l2-.31v2h2.92v1.63h-2.92v2.43a2,2,0,0,0,.21,1,1.44,1.44,0,0,0,1.1.37,6.29,6.29,0,0,0,.85-.06,3.62,3.62,0,0,0,.61-.17L276,102a4.9,4.9,0,0,1-.79.25,6.48,6.48,0,0,1-1.26.11,4.64,4.64,0,0,1-1.54-.22,2,2,0,0,1-.84-.6,2.21,2.21,0,0,1-.44-.94,5.13,5.13,0,0,1-.13-1.22V96.93H269.5V95.3H271Z"/><path class="cls-6" d="M276.92,98.8a4.15,4.15,0,0,1,.29-1.6,3.31,3.31,0,0,1,.74-1.15,2.91,2.91,0,0,1,1.05-.69,3.28,3.28,0,0,1,1.23-.24,3,3,0,0,1,2.32.9,3.69,3.69,0,0,1,.85,2.64c0,.11,0,.24,0,.37s0,.26,0,.37h-4.43a1.27,1.27,0,0,0,.56.95,2.26,2.26,0,0,0,1.34.36,6.24,6.24,0,0,0,1.06-.1,4.84,4.84,0,0,0,.84-.24L283,102a3.13,3.13,0,0,1-.42.16c-.18,0-.37.1-.59.14l-.69.1c-.24,0-.49,0-.73,0a4.43,4.43,0,0,1-1.62-.28,3.06,3.06,0,0,1-1.14-.75,3,3,0,0,1-.67-1.14,4.64,4.64,0,0,1-.22-1.42m4.59-.74a2,2,0,0,0-.08-.49,1.3,1.3,0,0,0-.22-.42,1.17,1.17,0,0,0-1-.42,1.4,1.4,0,0,0-.56.11,1.19,1.19,0,0,0-.39.3,1.07,1.07,0,0,0-.24.43,2.72,2.72,0,0,0-.13.49Z"/><path class="cls-6" d="M287.39,100.8a1.92,1.92,0,0,0,.76-.11.4.4,0,0,0,.23-.4.51.51,0,0,0-.29-.42,7.23,7.23,0,0,0-.88-.4,8.31,8.31,0,0,1-.83-.35,2.34,2.34,0,0,1-.64-.44,1.87,1.87,0,0,1-.41-.61,2.4,2.4,0,0,1-.14-.85,1.86,1.86,0,0,1,.72-1.54,3.17,3.17,0,0,1,2-.56,6.81,6.81,0,0,1,1.21.11,7.86,7.86,0,0,1,.92.24L289.67,97c-.22-.07-.47-.14-.74-.2a3.46,3.46,0,0,0-.89-.1c-.62,0-.92.17-.92.51a.46.46,0,0,0,0,.21.41.41,0,0,0,.15.18,2.7,2.7,0,0,0,.32.19c.14.06.31.14.52.21a8.83,8.83,0,0,1,1.07.47,2.59,2.59,0,0,1,.66.5,1.64,1.64,0,0,1,.34.6,2.86,2.86,0,0,1,.1.76,1.75,1.75,0,0,1-.77,1.54,3.82,3.82,0,0,1-2.17.53,6.53,6.53,0,0,1-1.53-.16A6.89,6.89,0,0,1,285,102l.32-1.59a7.2,7.2,0,0,0,1,.31,5.23,5.23,0,0,0,1,.11"/><rect class="cls-7" x="171.07" y="70.62" width="332.36" height="211.12" rx="7.2"/></g><rect class="cls-5" x="166.1" y="162.98" width="12.8" height="92.78"/><line class="cls-8" x1="64.01" y1="195.15" x2="142.28" y2="195.15"/><g class="cls-3"><path class="cls-9" d="M33.73,198.11c-2.58-1.58-4.36-5-4.36-8.88V184c0-5.67,4-7.85,7.63-7.85s7.64,2.18,7.64,7.85v5.24"/><path class="cls-10" d="M32.64,197.29v1.76c0,1.09.55,2.73-5.46,3.82a8,8,0,0,0-6.33,6H53.14a8,8,0,0,0-6.33-6c-5.85-1.09-5.46-2.73-5.46-3.82l0-1.72"/></g><polyline class="cls-11" points="31.55 201.47 37.01 208.87 42.46 201.44"/><g class="cls-3"><path class="cls-11" d="M29.37,184.87c6.54,0,6.54-4.37,10.91-4.37a4.2,4.2,0,0,1,4.36,3.84"/><path class="cls-9" d="M40.28,198.11c2.58-1.58,4.36-5,4.36-8.88"/><path class="cls-12" d="M64,195.14a27,27,0,1,1-27-27A27,27,0,0,1,64,195.14Z"/><path class="cls-13" d="M434.31,122.9h42.43a2.72,2.72,0,0,1,2.72,2.72v48.58a2.73,2.73,0,0,1-2.73,2.73H434.31a2.72,2.72,0,0,1-2.72-2.72V125.63A2.72,2.72,0,0,1,434.31,122.9Z"/><path class="cls-5" d="M460,139H443.21a3.93,3.93,0,0,0-3.94,3.93v16.77a3.93,3.93,0,0,0,3.94,3.93H460a3.94,3.94,0,0,0,3.94-3.93V143A3.94,3.94,0,0,0,460,139"/><path class="cls-14" d="M443.21,139H460a3.93,3.93,0,0,1,3.93,3.93v16.77a3.94,3.94,0,0,1-3.94,3.94H443.21a3.94,3.94,0,0,1-3.94-3.94V143A3.94,3.94,0,0,1,443.21,139Z"/><line class="cls-15" x1="439.27" y1="147.42" x2="463.91" y2="147.42"/><path class="cls-5" d="M463.87,142.78H447.1a3.93,3.93,0,0,0-3.93,3.94v16.76a3.93,3.93,0,0,0,3.93,3.94h16.77a3.93,3.93,0,0,0,3.93-3.94V146.72a3.93,3.93,0,0,0-3.93-3.94"/><rect class="cls-14" x="443.17" y="142.78" width="24.64" height="24.64" rx="3.94"/><line class="cls-15" x1="443.17" y1="151.18" x2="467.8" y2="151.18"/><path class="cls-5" d="M467.77,146.55H451a3.93,3.93,0,0,0-3.93,3.93v16.77a3.93,3.93,0,0,0,3.93,3.93h16.77a3.93,3.93,0,0,0,3.93-3.93V150.48a3.93,3.93,0,0,0-3.93-3.93"/><path class="cls-14" d="M451,146.55h16.77a3.93,3.93,0,0,1,3.93,3.93v16.77a3.94,3.94,0,0,1-3.94,3.94H451a3.94,3.94,0,0,1-3.94-3.94V150.48A3.94,3.94,0,0,1,451,146.55Z"/><line class="cls-15" x1="447.06" y1="154.95" x2="471.7" y2="154.95"/></g><path class="cls-16" d="M456.29,164.37h-2.62l-.43,1.1h-.88l2.12-5.34h1l2.13,5.34h-.89Zm-2.39-.72h2.16L455,160.82Z"/><path class="cls-16" d="M458.15,166.94V161.6h.72v.55a1.57,1.57,0,0,1,1.26-.64c1,0,1.73.76,1.73,2s-.72,2-1.73,2a1.53,1.53,0,0,1-1.26-.66v2Zm1.79-4.79a1.3,1.3,0,0,0-1.07.57v1.64a1.35,1.35,0,0,0,1.07.57c.72,0,1.16-.59,1.16-1.4S460.66,162.15,459.94,162.15Z"/><path class="cls-16" d="M462.4,166.94V161.6h.73v.55a1.57,1.57,0,0,1,1.26-.64c1,0,1.72.76,1.72,2s-.71,2-1.72,2a1.53,1.53,0,0,1-1.26-.66v2Zm1.8-4.79a1.3,1.3,0,0,0-1.07.57v1.64a1.35,1.35,0,0,0,1.07.57c.72,0,1.16-.59,1.16-1.4S464.92,162.15,464.2,162.15Z"/><path class="cls-16" d="M453,148.49h2.5a1.72,1.72,0,1,1,0,3.43h-1.36v1.91H453Zm2.35,1h-1.21v1.47h1.21a.74.74,0,1,0,0-1.47Z"/><path class="cls-16" d="M457.43,151.9a2.05,2.05,0,1,1,2.05,2A2,2,0,0,1,457.43,151.9Zm3,0a1,1,0,1,0-1,1.12A1,1,0,0,0,460.47,151.9Z"/><path class="cls-16" d="M464.78,153.34a1.51,1.51,0,0,1-1.19.59c-1,0-1.71-.74-1.71-2s.72-2,1.71-2a1.48,1.48,0,0,1,1.19.59v-2h1v5.34h-1Zm0-2.13a1.1,1.1,0,0,0-.88-.44,1.14,1.14,0,0,0,0,2.25,1.07,1.07,0,0,0,.88-.44Z"/><path class="cls-16" d="M437.22,132.77a2.69,2.69,0,0,0,2,.89c1,0,1.39-.52,1.39-1,0-.67-.73-.86-1.53-1.06-1-.27-2.2-.57-2.2-1.86,0-1,.92-1.8,2.24-1.8a3.1,3.1,0,0,1,2.31.88l-.55.7a2.47,2.47,0,0,0-1.83-.74c-.71,0-1.19.36-1.19.89s.68.76,1.47,1c1,.27,2.25.59,2.25,1.94,0,1-.69,1.92-2.4,1.92a3.24,3.24,0,0,1-2.5-1Z"/><path class="cls-16" d="M444.48,129.69a2.26,2.26,0,0,1,2.24,2.48v.21h-3.63a1.49,1.49,0,0,0,1.56,1.42,2,2,0,0,0,1.36-.54l.39.56a2.55,2.55,0,0,1-1.84.69,2.41,2.41,0,0,1-.08-4.82Zm-1.4,2.07h2.8a1.36,1.36,0,0,0-1.4-1.37A1.4,1.4,0,0,0,443.08,131.76Z"/><path class="cls-16" d="M447.46,129.8h.85v.7a2,2,0,0,1,1.51-.81v.87a1.32,1.32,0,0,0-.3,0,1.6,1.6,0,0,0-1.21.67v3.19h-.85Z"/><path class="cls-16" d="M450.47,129.8h.91l1.44,3.6,1.44-3.6h.92l-1.89,4.59h-.93Z"/><path class="cls-16" d="M455.64,128.49a.56.56,0,0,1,1.11,0,.56.56,0,0,1-1.11,0Zm.14,1.31h.85v4.59h-.85Z"/><path class="cls-16" d="M459.81,129.69a2,2,0,0,1,1.72.8L461,131a1.29,1.29,0,0,0-1.12-.57,1.65,1.65,0,0,0,0,3.29,1.32,1.32,0,0,0,1.12-.57l.57.53a2,2,0,0,1-1.72.81,2.41,2.41,0,0,1,0-4.82Z"/><path class="cls-16" d="M464.3,129.69a2.25,2.25,0,0,1,2.23,2.48v.21H462.9a1.51,1.51,0,0,0,1.56,1.42,2,2,0,0,0,1.36-.54l.4.56a2.57,2.57,0,0,1-1.84.69,2.41,2.41,0,0,1-.08-4.82Zm-1.41,2.07h2.81a1.36,1.36,0,0,0-1.4-1.37A1.41,1.41,0,0,0,462.89,131.76Z"/><path class="cls-16" d="M469.49,133.64c2.38-1.83,3.47-2.78,3.47-3.77a1.1,1.1,0,0,0-1.24-1.07,2.16,2.16,0,0,0-1.72.78l-.56-.62a2.93,2.93,0,0,1,2.28-1,2,2,0,0,1,2.21,1.91c0,1.23-1.19,2.34-2.93,3.68h3v.84h-4.47Z"/><g class="cls-3"><rect class="cls-13" x="431.58" y="213.31" width="47.87" height="54.03" rx="2.72"/><path class="cls-5" d="M460,229.42H443.21a3.94,3.94,0,0,0-3.94,3.94v16.76a3.93,3.93,0,0,0,3.94,3.94H460a3.94,3.94,0,0,0,3.94-3.94V233.36a4,4,0,0,0-3.94-3.94"/><path class="cls-14" d="M443.21,229.42H460a3.93,3.93,0,0,1,3.93,3.93v16.77a3.94,3.94,0,0,1-3.94,3.94H443.21a3.94,3.94,0,0,1-3.94-3.94V233.36A3.94,3.94,0,0,1,443.21,229.42Z"/><line class="cls-15" x1="439.27" y1="237.83" x2="463.91" y2="237.83"/><path class="cls-5" d="M463.87,233.19H447.1a3.93,3.93,0,0,0-3.93,3.93v16.77a3.93,3.93,0,0,0,3.93,3.93h16.77a3.93,3.93,0,0,0,3.93-3.93V237.12a3.93,3.93,0,0,0-3.93-3.93"/><rect class="cls-14" x="443.17" y="233.19" width="24.64" height="24.64" rx="3.94"/><line class="cls-15" x1="443.17" y1="241.59" x2="467.8" y2="241.59"/><path class="cls-5" d="M467.77,237H451a3.93,3.93,0,0,0-3.93,3.94v16.76a3.94,3.94,0,0,0,3.93,3.94h16.77a3.94,3.94,0,0,0,3.93-3.94V240.89a3.93,3.93,0,0,0-3.93-3.94"/><rect class="cls-14" x="447.07" y="236.95" width="24.64" height="24.64" rx="3.94"/><line class="cls-15" x1="447.06" y1="245.35" x2="471.7" y2="245.35"/></g><path class="cls-16" d="M456.29,254.77h-2.62l-.43,1.11h-.88l2.12-5.35h1l2.13,5.35h-.89Zm-2.39-.71h2.16L455,251.23Z"/><path class="cls-16" d="M458.15,257.35V252h.72v.55a1.58,1.58,0,0,1,1.26-.65c1,0,1.73.76,1.73,2s-.72,2-1.73,2a1.54,1.54,0,0,1-1.26-.65v2Zm1.79-4.8a1.32,1.32,0,0,0-1.07.57v1.64a1.32,1.32,0,0,0,1.07.57c.72,0,1.16-.58,1.16-1.39S460.66,252.55,459.94,252.55Z"/><path class="cls-16" d="M462.4,257.35V252h.73v.55a1.58,1.58,0,0,1,1.26-.65c1,0,1.72.76,1.72,2s-.71,2-1.72,2a1.54,1.54,0,0,1-1.26-.65v2Zm1.8-4.8a1.32,1.32,0,0,0-1.07.57v1.64a1.32,1.32,0,0,0,1.07.57c.72,0,1.16-.58,1.16-1.39S464.92,252.55,464.2,252.55Z"/><path class="cls-16" d="M453,238.9h2.5a1.71,1.71,0,1,1,0,3.42h-1.36v1.92H453Zm2.35,1h-1.21v1.48h1.21a.74.74,0,1,0,0-1.48Z"/><path class="cls-16" d="M457.43,242.3a2.05,2.05,0,1,1,2.05,2A2,2,0,0,1,457.43,242.3Zm3,0a1,1,0,1,0-1,1.13A1,1,0,0,0,460.47,242.3Z"/><path class="cls-16" d="M464.78,243.74a1.49,1.49,0,0,1-1.19.6c-1,0-1.71-.74-1.71-2s.72-2,1.71-2a1.49,1.49,0,0,1,1.19.6v-2h1v5.34h-1Zm0-2.12a1.07,1.07,0,0,0-.88-.44,1.14,1.14,0,0,0,0,2.25,1.07,1.07,0,0,0,.88-.44Z"/><path class="cls-16" d="M437.33,223.17a2.63,2.63,0,0,0,2,.89c1,0,1.39-.52,1.39-1,0-.67-.72-.86-1.53-1.07-1-.27-2.2-.56-2.2-1.85,0-1,.93-1.81,2.25-1.81a3.1,3.1,0,0,1,2.31.88L441,220a2.5,2.5,0,0,0-1.84-.74c-.7,0-1.19.36-1.19.89s.69.75,1.48,1c1,.28,2.24.6,2.24,1.95,0,1-.68,1.91-2.4,1.91a3.26,3.26,0,0,1-2.5-1Z"/><path class="cls-16" d="M444.59,220.09a2.25,2.25,0,0,1,2.23,2.48v.21h-3.63a1.51,1.51,0,0,0,1.56,1.43,2,2,0,0,0,1.36-.54l.4.56a2.62,2.62,0,0,1-1.85.68,2.41,2.41,0,0,1-.07-4.82Zm-1.41,2.07H446a1.37,1.37,0,0,0-1.4-1.37A1.42,1.42,0,0,0,443.18,222.16Z"/><path class="cls-16" d="M447.56,220.2h.86v.71a1.93,1.93,0,0,1,1.5-.81V221a1.23,1.23,0,0,0-.29,0,1.63,1.63,0,0,0-1.21.66v3.2h-.86Z"/><path class="cls-16" d="M450.58,220.2h.91l1.43,3.61,1.44-3.61h.92l-1.89,4.6h-.92Z"/><path class="cls-16" d="M455.75,218.89a.55.55,0,0,1,1.1,0,.55.55,0,0,1-1.1,0Zm.13,1.31h.86v4.6h-.86Z"/><path class="cls-16" d="M459.91,220.09a2,2,0,0,1,1.72.81l-.57.52a1.28,1.28,0,0,0-1.11-.57,1.66,1.66,0,0,0,0,3.3,1.3,1.3,0,0,0,1.11-.57l.57.52a2,2,0,0,1-1.72.81,2.41,2.41,0,0,1,0-4.82Z"/><path class="cls-16" d="M464.41,220.09a2.26,2.26,0,0,1,2.23,2.48v.21H463a1.51,1.51,0,0,0,1.56,1.43,2,2,0,0,0,1.36-.54l.4.56a2.63,2.63,0,0,1-1.85.68,2.41,2.41,0,0,1-.07-4.82ZM463,222.16h2.8a1.36,1.36,0,0,0-1.39-1.37A1.41,1.41,0,0,0,463,222.16Z"/><path class="cls-16" d="M472.4,223.27h-3v-.77l2.66-4h1.3v4h.88v.83h-.88v1.53h-1Zm-2.07-.83h2.07v-3.12Z"/><g class="cls-3"><path class="cls-13" d="M287.53,122.9H330a2.72,2.72,0,0,1,2.72,2.72v48.58a2.73,2.73,0,0,1-2.73,2.73H287.53a2.72,2.72,0,0,1-2.72-2.72V125.63A2.72,2.72,0,0,1,287.53,122.9Z"/><path class="cls-5" d="M313.19,139H296.42a3.93,3.93,0,0,0-3.93,3.93v16.77a3.93,3.93,0,0,0,3.93,3.93h16.77a3.94,3.94,0,0,0,3.94-3.93V143a3.94,3.94,0,0,0-3.94-3.93"/><path class="cls-14" d="M296.43,139h16.77a3.93,3.93,0,0,1,3.93,3.93v16.77a3.94,3.94,0,0,1-3.94,3.94H296.43a3.94,3.94,0,0,1-3.94-3.94V143a3.94,3.94,0,0,1,3.94-3.94Z"/><line class="cls-15" x1="292.49" y1="147.42" x2="317.13" y2="147.42"/><path class="cls-5" d="M317.09,142.78H300.32a3.93,3.93,0,0,0-3.93,3.94v16.76a3.93,3.93,0,0,0,3.93,3.94h16.77a3.93,3.93,0,0,0,3.93-3.94V146.72a3.93,3.93,0,0,0-3.93-3.94"/><path class="cls-14" d="M300.32,142.78h16.76a3.93,3.93,0,0,1,3.93,3.93v16.77a3.94,3.94,0,0,1-3.94,3.94H300.32a3.94,3.94,0,0,1-3.94-3.94V146.72a3.94,3.94,0,0,1,3.94-3.94Z"/><line class="cls-15" x1="296.39" y1="151.18" x2="321.02" y2="151.18"/><path class="cls-5" d="M321,146.55H304.22a3.93,3.93,0,0,0-3.94,3.93v16.77a3.93,3.93,0,0,0,3.94,3.93H321a3.93,3.93,0,0,0,3.94-3.93V150.48a3.93,3.93,0,0,0-3.94-3.93"/><path class="cls-14" d="M304.22,146.55H321a3.93,3.93,0,0,1,3.93,3.93v16.77a3.93,3.93,0,0,1-3.93,3.93H304.22a3.94,3.94,0,0,1-3.94-3.94V150.48A3.94,3.94,0,0,1,304.22,146.55Z"/><line class="cls-15" x1="300.28" y1="154.95" x2="324.92" y2="154.95"/></g><path class="cls-16" d="M309.51,164.37h-2.62l-.43,1.1h-.88l2.12-5.34h1l2.12,5.34h-.88Zm-2.39-.72h2.16l-1.08-2.83Z"/><path class="cls-16" d="M311.37,166.94V161.6h.72v.55a1.57,1.57,0,0,1,1.26-.64c1,0,1.72.76,1.72,2s-.71,2-1.72,2a1.53,1.53,0,0,1-1.26-.66v2Zm1.79-4.79a1.3,1.3,0,0,0-1.07.57v1.64a1.35,1.35,0,0,0,1.07.57c.72,0,1.16-.59,1.16-1.4S313.88,162.15,313.16,162.15Z"/><path class="cls-16" d="M315.62,166.94V161.6h.72v.55a1.59,1.59,0,0,1,1.27-.64c1,0,1.72.76,1.72,2s-.71,2-1.72,2a1.54,1.54,0,0,1-1.27-.66v2Zm1.8-4.79a1.33,1.33,0,0,0-1.08.57v1.64a1.39,1.39,0,0,0,1.08.57c.72,0,1.16-.59,1.16-1.4S318.14,162.15,317.42,162.15Z"/><path class="cls-16" d="M306.22,148.49h2.5a1.72,1.72,0,1,1,0,3.43h-1.36v1.91h-1.14Zm2.35,1h-1.21v1.47h1.21a.74.74,0,1,0,0-1.47Z"/><path class="cls-16" d="M310.65,151.9a2.05,2.05,0,1,1,2,2A2,2,0,0,1,310.65,151.9Zm3,0a1,1,0,1,0-2,0,1,1,0,1,0,2,0Z"/><path class="cls-16" d="M318,153.34a1.51,1.51,0,0,1-1.19.59c-1,0-1.72-.74-1.72-2a1.79,1.79,0,0,1,1.72-2,1.48,1.48,0,0,1,1.19.59v-2h1v5.34h-1Zm0-2.13a1.12,1.12,0,0,0-.88-.44,1.14,1.14,0,0,0,0,2.25,1.09,1.09,0,0,0,.88-.44Z"/><path class="cls-16" d="M290.44,132.77a2.69,2.69,0,0,0,2,.89c1,0,1.39-.52,1.39-1,0-.67-.73-.86-1.54-1.06-1-.27-2.19-.57-2.19-1.86,0-1,.92-1.8,2.24-1.8a3.1,3.1,0,0,1,2.31.88l-.55.7a2.47,2.47,0,0,0-1.83-.74c-.71,0-1.19.36-1.19.89s.68.76,1.47,1c1,.27,2.24.59,2.24,1.94,0,1-.68,1.92-2.39,1.92a3.24,3.24,0,0,1-2.5-1Z"/><path class="cls-16" d="M297.7,129.69a2.26,2.26,0,0,1,2.24,2.48v.21h-3.63a1.49,1.49,0,0,0,1.55,1.42,2,2,0,0,0,1.36-.54l.4.56a2.55,2.55,0,0,1-1.84.69,2.41,2.41,0,0,1-.08-4.82Zm-1.4,2.07h2.8a1.36,1.36,0,0,0-1.4-1.37A1.4,1.4,0,0,0,296.3,131.76Z"/><path class="cls-16" d="M300.68,129.8h.85v.7a2,2,0,0,1,1.5-.81v.87a1.23,1.23,0,0,0-.29,0,1.6,1.6,0,0,0-1.21.67v3.19h-.85Z"/><path class="cls-16" d="M303.69,129.8h.91l1.44,3.6,1.43-3.6h.93l-1.9,4.59h-.92Z"/><path class="cls-16" d="M308.86,128.49a.55.55,0,0,1,.55-.55.55.55,0,1,1,0,1.09A.55.55,0,0,1,308.86,128.49Zm.13,1.31h.86v4.59H309Z"/><path class="cls-16" d="M313,129.69a2,2,0,0,1,1.72.8l-.57.53a1.27,1.27,0,0,0-1.11-.57,1.65,1.65,0,0,0,0,3.29,1.29,1.29,0,0,0,1.11-.57l.57.53a2,2,0,0,1-1.72.81,2.41,2.41,0,0,1,0-4.82Z"/><path class="cls-16" d="M317.52,129.69a2.25,2.25,0,0,1,2.23,2.48v.21h-3.63a1.51,1.51,0,0,0,1.56,1.42,2,2,0,0,0,1.36-.54l.4.56a2.58,2.58,0,0,1-1.85.69,2.41,2.41,0,0,1-.07-4.82Zm-1.41,2.07h2.81a1.36,1.36,0,0,0-1.4-1.37A1.41,1.41,0,0,0,316.11,131.76Z"/><path class="cls-16" d="M322.72,133.64c2.37-1.83,3.47-2.78,3.47-3.77A1.1,1.1,0,0,0,325,128.8a2.16,2.16,0,0,0-1.72.78l-.56-.62a2.91,2.91,0,0,1,2.27-1,2,2,0,0,1,2.22,1.91c0,1.23-1.19,2.34-2.93,3.68h3v.84h-4.47Z"/><g class="cls-3"><rect class="cls-13" x="284.8" y="213.31" width="47.87" height="54.03" rx="2.72"/><path class="cls-5" d="M313.19,229.42H296.42a3.94,3.94,0,0,0-3.93,3.94v16.76a3.93,3.93,0,0,0,3.93,3.94h16.77a3.94,3.94,0,0,0,3.94-3.94V233.36a4,4,0,0,0-3.94-3.94"/><path class="cls-14" d="M296.43,229.42h16.76a3.93,3.93,0,0,1,3.93,3.93v16.77a3.94,3.94,0,0,1-3.94,3.94H296.43a3.94,3.94,0,0,1-3.94-3.94V233.36A3.94,3.94,0,0,1,296.43,229.42Z"/><line class="cls-15" x1="292.49" y1="237.83" x2="317.13" y2="237.83"/><path class="cls-5" d="M317.09,233.19H300.32a3.93,3.93,0,0,0-3.93,3.93v16.77a3.93,3.93,0,0,0,3.93,3.93h16.77a3.93,3.93,0,0,0,3.93-3.93V237.12a3.93,3.93,0,0,0-3.93-3.93"/><path class="cls-14" d="M300.32,233.19h16.76a3.93,3.93,0,0,1,3.93,3.93v16.77a3.94,3.94,0,0,1-3.94,3.94H300.32a3.94,3.94,0,0,1-3.94-3.94V237.12A3.94,3.94,0,0,1,300.32,233.19Z"/><line class="cls-15" x1="296.39" y1="241.59" x2="321.02" y2="241.59"/><path class="cls-5" d="M321,237H304.22a3.93,3.93,0,0,0-3.94,3.94v16.76a3.94,3.94,0,0,0,3.94,3.94H321a3.94,3.94,0,0,0,3.94-3.94V240.89A3.93,3.93,0,0,0,321,237"/><rect class="cls-14" x="300.28" y="236.95" width="24.64" height="24.64" rx="3.94"/><line class="cls-15" x1="300.28" y1="245.35" x2="324.92" y2="245.35"/></g><path class="cls-16" d="M309.51,254.77h-2.62l-.43,1.11h-.88l2.12-5.35h1l2.12,5.35h-.88Zm-2.39-.71h2.16l-1.08-2.83Z"/><path class="cls-16" d="M311.37,257.35V252h.72v.55a1.58,1.58,0,0,1,1.26-.65c1,0,1.72.76,1.72,2s-.71,2-1.72,2a1.54,1.54,0,0,1-1.26-.65v2Zm1.79-4.8a1.32,1.32,0,0,0-1.07.57v1.64a1.32,1.32,0,0,0,1.07.57c.72,0,1.16-.58,1.16-1.39S313.88,252.55,313.16,252.55Z"/><path class="cls-16" d="M315.62,257.35V252h.72v.55a1.6,1.6,0,0,1,1.27-.65c1,0,1.72.76,1.72,2s-.71,2-1.72,2a1.56,1.56,0,0,1-1.27-.65v2Zm1.8-4.8a1.36,1.36,0,0,0-1.08.57v1.64a1.36,1.36,0,0,0,1.08.57c.72,0,1.16-.58,1.16-1.39S318.14,252.55,317.42,252.55Z"/><path class="cls-16" d="M306.22,238.9h2.5a1.71,1.71,0,1,1,0,3.42h-1.36v1.92h-1.14Zm2.35,1h-1.21v1.48h1.21a.74.74,0,1,0,0-1.48Z"/><path class="cls-16" d="M310.65,242.3a2.05,2.05,0,1,1,2,2A2,2,0,0,1,310.65,242.3Zm3,0a1,1,0,1,0-1,1.13A1,1,0,0,0,313.69,242.3Z"/><path class="cls-16" d="M318,243.74a1.49,1.49,0,0,1-1.19.6c-1,0-1.72-.74-1.72-2s.73-2,1.72-2a1.49,1.49,0,0,1,1.19.6v-2h1v5.34h-1Zm0-2.12a1.09,1.09,0,0,0-.88-.44,1.14,1.14,0,0,0,0,2.25A1.09,1.09,0,0,0,318,243Z"/><path class="cls-16" d="M290.55,223.17a2.63,2.63,0,0,0,2,.89c1,0,1.39-.52,1.39-1,0-.67-.72-.86-1.53-1.07-1-.27-2.2-.56-2.2-1.85,0-1,.93-1.81,2.25-1.81a3.1,3.1,0,0,1,2.31.88l-.55.71a2.51,2.51,0,0,0-1.84-.74c-.7,0-1.19.36-1.19.89s.69.75,1.48,1c1,.28,2.24.6,2.24,1.95,0,1-.68,1.91-2.4,1.91a3.26,3.26,0,0,1-2.5-1Z"/><path class="cls-16" d="M297.81,220.09a2.25,2.25,0,0,1,2.23,2.48v.21h-3.63a1.51,1.51,0,0,0,1.56,1.43,2,2,0,0,0,1.36-.54l.4.56a2.62,2.62,0,0,1-1.85.68,2.41,2.41,0,0,1-.07-4.82Zm-1.41,2.07h2.81a1.37,1.37,0,0,0-1.4-1.37A1.41,1.41,0,0,0,296.4,222.16Z"/><path class="cls-16" d="M300.78,220.2h.86v.71a1.93,1.93,0,0,1,1.5-.81V221a1.32,1.32,0,0,0-.3,0,1.62,1.62,0,0,0-1.2.66v3.2h-.86Z"/><path class="cls-16" d="M303.8,220.2h.91l1.43,3.61,1.44-3.61h.92l-1.89,4.6h-.92Z"/><path class="cls-16" d="M309,218.89a.55.55,0,0,1,1.1,0,.55.55,0,1,1-1.1,0Zm.13,1.31H310v4.6h-.85Z"/><path class="cls-16" d="M313.13,220.09a2,2,0,0,1,1.72.81l-.57.52a1.29,1.29,0,0,0-1.11-.57,1.66,1.66,0,0,0,0,3.3,1.31,1.31,0,0,0,1.11-.57l.57.52a2,2,0,0,1-1.72.81,2.41,2.41,0,0,1,0-4.82Z"/><path class="cls-16" d="M317.62,220.09a2.26,2.26,0,0,1,2.24,2.48v.21h-3.63a1.5,1.5,0,0,0,1.56,1.43,1.94,1.94,0,0,0,1.35-.54l.4.56a2.59,2.59,0,0,1-1.84.68,2.41,2.41,0,0,1-.08-4.82Zm-1.4,2.07H319a1.37,1.37,0,0,0-1.4-1.37A1.4,1.4,0,0,0,316.22,222.16Z"/><path class="cls-16" d="M325.63,223.27h-3v-.77l2.67-4h1.3v4h.87v.83h-.87v1.53h-.95Zm-2.08-.83h2.08v-3.12Z"/><path class="cls-16" d="M153.36,227.63h1.2v8h-1.2Z"/><path class="cls-16" d="M160,231.93c0-1-.49-1.27-1.24-1.27a2.07,2.07,0,0,0-1.6.84v4.14h-1.08v-5.8h1.08v.82a2.79,2.79,0,0,1,2.06-1,1.66,1.66,0,0,1,1.86,1.87v4.07H160Z"/><path class="cls-16" d="M163.05,236.34a2.25,2.25,0,0,0,1.86.76,1.6,1.6,0,0,0,1.8-1.65v-.76a2.45,2.45,0,0,1-1.91,1c-1.5,0-2.58-1.11-2.58-3s1.08-3,2.58-3a2.39,2.39,0,0,1,1.91,1v-.84h1.08v5.57c0,2-1.45,2.58-2.88,2.58a3.1,3.1,0,0,1-2.38-.86Zm3.66-4.83a2,2,0,0,0-1.61-.85,2.06,2.06,0,0,0,0,4.07,2,2,0,0,0,1.61-.87Z"/><path class="cls-16" d="M169.26,229.84h1.08v.89a2.46,2.46,0,0,1,1.9-1v1.09a2,2,0,0,0-.37,0,2.08,2.08,0,0,0-1.53.84v4h-1.08Z"/><path class="cls-16" d="M175.63,229.7a2.85,2.85,0,0,1,2.82,3.13v.26h-4.59a1.91,1.91,0,0,0,2,1.81,2.45,2.45,0,0,0,1.72-.69l.5.71a3.26,3.26,0,0,1-2.33.86,3,3,0,0,1-.09-6.08Zm-1.78,2.61h3.54a1.72,1.72,0,0,0-1.76-1.73A1.78,1.78,0,0,0,173.85,232.31Z"/><path class="cls-16" d="M179.58,234.09a2.8,2.8,0,0,0,1.94.83c.82,0,1.25-.34,1.25-.83s-.66-.77-1.4-.94c-1-.22-2.14-.49-2.14-1.74,0-.92.79-1.71,2.21-1.71a3.15,3.15,0,0,1,2.21.82l-.48.76a2.27,2.27,0,0,0-1.72-.71c-.73,0-1.19.29-1.19.76s.63.67,1.35.84c1,.23,2.21.5,2.21,1.84,0,1-.82,1.77-2.35,1.77a3.3,3.3,0,0,1-2.41-.9Z"/><path class="cls-16" d="M185,234.09a2.8,2.8,0,0,0,1.94.83c.82,0,1.25-.34,1.25-.83s-.66-.77-1.4-.94c-1-.22-2.14-.49-2.14-1.74,0-.92.79-1.71,2.21-1.71a3.13,3.13,0,0,1,2.21.82l-.48.76a2.27,2.27,0,0,0-1.72-.71c-.73,0-1.19.29-1.19.76s.63.67,1.35.84c1,.23,2.21.5,2.21,1.84,0,1-.82,1.77-2.35,1.77a3.3,3.3,0,0,1-2.41-.9Z"/><path class="cls-16" d="M146.36,245.65a4,4,0,0,1,4.1-4.14,3.65,3.65,0,0,1,3.19,1.69l-1,.54a2.54,2.54,0,0,0-2.16-1.16,3.08,3.08,0,0,0,0,6.15,2.54,2.54,0,0,0,2.16-1.17l1,.54a3.64,3.64,0,0,1-3.19,1.7A4,4,0,0,1,146.36,245.65Z"/><path class="cls-16" d="M154.23,246.75a2.93,2.93,0,1,1,2.93,3.05A2.88,2.88,0,0,1,154.23,246.75Zm4.73,0a1.82,1.82,0,1,0-3.6,0,1.82,1.82,0,1,0,3.6,0Z"/><path class="cls-16" d="M165.15,245.94c0-1-.5-1.27-1.24-1.27a2.08,2.08,0,0,0-1.6.84v4.14h-1.08v-5.8h1.08v.82a2.79,2.79,0,0,1,2.06-1,1.67,1.67,0,0,1,1.86,1.87v4.07h-1.08Z"/><path class="cls-16" d="M167.93,248.37V244.8h-1v-1h1v-1.58H169v1.58h1.18v1H169v3.33c0,.4.19.71.57.71a.8.8,0,0,0,.58-.23l.28.81a1.52,1.52,0,0,1-1.13.38A1.26,1.26,0,0,1,167.93,248.37Z"/><path class="cls-16" d="M171.15,243.85h1.08v.89a2.45,2.45,0,0,1,1.9-1v1.09a2.09,2.09,0,0,0-.38,0,2,2,0,0,0-1.52.84v4h-1.08Z"/><path class="cls-16" d="M174.62,246.75a2.93,2.93,0,1,1,2.93,3.05A2.88,2.88,0,0,1,174.62,246.75Zm4.73,0a1.82,1.82,0,1,0-1.8,2.09A1.88,1.88,0,0,0,179.35,246.75Z"/><path class="cls-16" d="M181.62,241.64h1.08v8h-1.08Z"/><path class="cls-16" d="M184.19,241.64h1.08v8h-1.08Z"/><path class="cls-16" d="M189.3,243.71a2.85,2.85,0,0,1,2.82,3.13v.27h-4.58a1.9,1.9,0,0,0,2,1.8,2.43,2.43,0,0,0,1.71-.69l.51.71a3.26,3.26,0,0,1-2.33.87,3,3,0,0,1-.1-6.09Zm-1.78,2.62h3.55a1.72,1.72,0,0,0-1.77-1.73A1.78,1.78,0,0,0,187.52,246.33Z"/><path class="cls-16" d="M193.24,243.85h1.08v.89a2.45,2.45,0,0,1,1.9-1v1.09a2.09,2.09,0,0,0-.38,0,2,2,0,0,0-1.52.84v4h-1.08Z"/><g class="cls-3"><path class="cls-14" d="M279.8,178a53.76,53.76,0,0,1-30,9.1"/></g><line class="cls-8" x1="275.17" y1="176.96" x2="279.8" y2="177.95"/><line class="cls-8" x1="278.8" y1="182.58" x2="279.8" y2="177.95"/><line class="cls-14" x1="193.86" y1="187.05" x2="249.79" y2="187.05"/><g class="cls-3"><path class="cls-14" d="M426.58,178a56.52,56.52,0,0,1-37.87,14.49"/></g><line class="cls-8" x1="421.86" y1="177.7" x2="426.58" y2="177.95"/><line class="cls-8" x1="426.33" y1="182.67" x2="426.58" y2="177.95"/><line class="cls-14" x1="193.8" y1="192.44" x2="388.71" y2="192.44"/><g class="cls-3"><path class="cls-14" d="M279.8,212.33a53.84,53.84,0,0,0-30-9.1"/></g><line class="cls-8" x1="275.17" y1="213.33" x2="279.8" y2="212.33"/><line class="cls-8" x1="278.8" y1="207.71" x2="279.8" y2="212.33"/><line class="cls-14" x1="193.86" y1="203.24" x2="249.79" y2="203.24"/><g class="cls-3"><path class="cls-14" d="M426.58,212.34a56.48,56.48,0,0,0-37.87-14.5"/></g><line class="cls-8" x1="421.86" y1="212.58" x2="426.58" y2="212.34"/><line class="cls-8" x1="426.33" y1="207.61" x2="426.58" y2="212.34"/><line class="cls-14" x1="193.8" y1="197.84" x2="388.71" y2="197.84"/><g class="cls-3"><path class="cls-17" d="M192.31,217.14h.34v-.77h.27a.77.77,0,0,1,.39.07.47.47,0,0,1,.18.44v.24s0,0,0,0h.32v0a.22.22,0,0,1,0-.1v-.29a.58.58,0,0,0-.11-.31.52.52,0,0,0-.34-.19.77.77,0,0,0,.28-.09.43.43,0,0,0,.19-.39.47.47,0,0,0-.3-.49,1.4,1.4,0,0,0-.53-.07h-.68Zm1-1a.92.92,0,0,1-.33,0h-.31v-.71h.29a.86.86,0,0,1,.42.08.29.29,0,0,1,.13.28.32.32,0,0,1-.2.31m1-1.18a1.75,1.75,0,0,0-1.27-.51,1.77,1.77,0,1,0,1.79,1.77,1.75,1.75,0,0,0-.52-1.26m-.18.18a1.45,1.45,0,0,1,.44,1.08,1.53,1.53,0,1,1-3.06,0,1.46,1.46,0,0,1,.45-1.08,1.53,1.53,0,0,1,2.17,0"/><path class="cls-18" d="M147.68,208.65a2.72,2.72,0,0,0,1,1l21,12.11h0a2.75,2.75,0,0,0,2.79,0l21-12.11a2.76,2.76,0,0,0,1.4-2.42V183a2.81,2.81,0,0,0-.37-1.39,2.72,2.72,0,0,0-1-1l-21-12.11h0a2.75,2.75,0,0,0-2.79,0h0l-21,12.11a2.66,2.66,0,0,0-1,1,2.81,2.81,0,0,0-.37,1.39h0v24.22a2.72,2.72,0,0,0,.37,1.4"/><path class="cls-5" d="M167,203.05a3.75,3.75,0,0,0,2.87,1.29,2.2,2.2,0,0,0,2.39-2.05v-14.5a2.05,2.05,0,0,0-2-2h-.06a2.11,2.11,0,0,0-2.1,2.11v10.31a.06.06,0,0,1-.1,0L158.64,187a3.75,3.75,0,0,0-2.87-1.29,2.2,2.2,0,0,0-2.39,2v14.5a2.05,2.05,0,0,0,2,2.05h.07a2.11,2.11,0,0,0,2.1-2.1V191.93a.06.06,0,0,1,.1,0Z"/><path class="cls-5" d="M188.48,193.8h-4.32a0,0,0,0,1,0-.05v-4.3a1.82,1.82,0,0,0-3.64,0v4.12a.23.23,0,0,1-.23.23h-4.31a1.82,1.82,0,0,0,0,3.64h4.5a0,0,0,0,1,0,.05v4.31a1.82,1.82,0,0,0,3.64,0v-4.13a.23.23,0,0,1,.23-.23h4.13a1.82,1.82,0,0,0,0-3.64"/><line class="cls-8" x1="138.86" y1="191.69" x2="142.31" y2="195.14"/><line class="cls-8" x1="138.86" y1="198.59" x2="142.31" y2="195.14"/></g></g></svg>